<?xml version="1.0" encoding="UTF-8" standalone="no"?><!DOCTYPE svg PUBLIC "-//W3C//DTD SVG 1.1//EN" "http://www.w3.org/Graphics/SVG/1.1/DTD/svg11.dtd"><svg width="100%" height="100%" viewBox="0 0 59 59" version="1.1" xmlns="http://www.w3.org/2000/svg" xmlns:xlink="http://www.w3.org/1999/xlink" xml:space="preserve" xmlns:serif="http://www.serif.com/" style="fill-rule:evenodd;clip-rule:evenodd;stroke-linecap:round;stroke-miterlimit:1.5;"><rect x="0.863" y="0.863" width="56.693" height="56.693" style="stroke:#fff;stroke-width:0.96px;"/><path d="M27.256,42.306l0,-26.191l5.678,0l5.801,15.205c0.164,0.434 0.352,0.979 0.562,1.635c0.211,0.656 0.431,1.354 0.659,2.092c0.229,0.738 0.445,1.45 0.65,2.136c0.205,0.686 -0.067,-0.256 0.074,0.248c0.141,-0.48 -0.141,0.473 0.058,-0.213c0.199,-0.686 0.413,-1.397 0.642,-2.136c0.229,-0.738 0.451,-1.441 0.668,-2.109c0.217,-0.668 0.401,-1.219 0.554,-1.652l5.713,-15.205l5.713,0l0,26.191l-3.458,0l-0.462,-14.186c0,-0.563 0.006,-1.204 0.018,-1.925c0.012,-0.721 0.029,-1.479 0.053,-2.276c0.023,-0.797 0.044,-1.6 0.062,-2.408c0.018,-0.809 0.032,-1.588 0.044,-2.338c-0.258,0.855 -0.123,1.717 -0.404,2.584c-0.281,0.867 -0.551,1.699 -0.809,2.496c-0.258,0.797 -0.501,1.526 -0.729,2.188c-0.229,0.662 -0.431,1.222 -0.606,1.679l-5.449,14.186l-3.305,0l-5.502,-14.186c-0.176,-0.457 -0.378,-1.011 -0.606,-1.661c-0.229,-0.65 -0.475,-1.374 -0.738,-2.171c-0.264,-0.797 -0.539,-1.632 -0.826,-2.505c-0.287,-0.873 -0.018,-0.015 -0.311,-0.883l-0.049,-1.728c0.023,0.715 0.044,1.474 0.062,2.276c0.018,0.803 0.035,1.605 0.053,2.408c0.018,0.803 0.032,1.57 0.044,2.303c0.012,0.732 0.018,1.386 0.018,1.96l0,14.186l-3.867,0Z" style="fill:#fff;fill-rule:nonzero;stroke:#fff;stroke-width:0.24px;stroke-linecap:butt;stroke-linejoin:round;stroke-miterlimit:2;"/><path d="M4.392,42.306l0,-26.191l5.678,0l5.801,15.205c0.164,0.434 0.352,0.979 0.562,1.635c0.211,0.656 0.431,1.354 0.659,2.092c0.229,0.738 0.445,1.45 0.65,2.136c0.205,0.686 -0.074,-0.251 0.067,0.253l-0.006,-0.05c0.141,-0.48 -0.128,0.518 0.071,-0.167c0.199,-0.686 0.413,-1.397 0.642,-2.136c0.229,-0.738 0.451,-1.441 0.668,-2.109c0.217,-0.668 0.401,-1.219 0.554,-1.652l5.713,-15.205l5.713,0l0,26.191l-3.458,0l-0.462,-14.186c0,-0.563 0.006,-1.204 0.018,-1.925c0.012,-0.721 0.029,-1.479 0.053,-2.276c0.023,-0.797 0.044,-1.6 0.062,-2.408c0.018,-0.809 0.008,-0.064 0.02,-0.814l0.429,-1.524c-0.258,0.855 -0.527,1.717 -0.809,2.584c-0.281,0.867 -0.551,1.699 -0.809,2.496c-0.258,0.797 -0.501,1.526 -0.729,2.188c-0.229,0.662 -0.431,1.222 -0.606,1.679l-5.449,14.186l-3.305,0l-5.502,-14.186c-0.176,-0.457 -0.378,-1.011 -0.606,-1.661c-0.229,-0.65 -0.475,-1.374 -0.738,-2.171c-0.264,-0.797 -0.539,-1.632 -0.826,-2.505c-0.287,-0.873 -0.019,-0.034 -0.312,-0.901l-0.048,-1.709c0.023,0.715 0.044,1.474 0.062,2.276c0.018,0.803 0.035,1.605 0.053,2.408c0.018,0.803 0.032,1.57 0.044,2.303c0.012,0.732 0.018,1.386 0.018,1.96l0,14.186l-3.867,0Z" style="fill:#fff;fill-rule:nonzero;stroke:#fff;stroke-width:0.24px;stroke-linecap:butt;stroke-linejoin:round;stroke-miterlimit:2;"/></svg>