<svg width="64" height="64" viewBox="0 0 64 64" fill="none" xmlns="http://www.w3.org/2000/svg">
<path d="M4 23.9112C4 16.9416 4 13.4568 5.35636 10.7948C6.54946 8.45322 8.45322 6.54946 10.7948 5.35636C13.4568 4 16.9416 4 23.9112 4H40.0888C47.0584 4 50.5432 4 53.2052 5.35636C55.5468 6.54946 57.4506 8.45322 58.6436 10.7948C60 13.4568 60 16.9416 60 23.9112V40.0888C60 47.0584 60 50.5432 58.6436 53.2052C57.4506 55.5468 55.5468 57.4506 53.2052 58.6436C50.5432 60 47.0584 60 40.0888 60H23.9112C16.9416 60 13.4568 60 10.7948 58.6436C8.45322 57.4506 6.54946 55.5468 5.35636 53.2052C4 50.5432 4 47.0584 4 40.0888V23.9112Z" fill="white"/>
<path d="M44.103 17.0469L32.1288 26.3918L19.8809 17.0469V17.0494L19.8957 17.062V30.1474L31.9908 39.6942L44.103 30.516V17.0469Z" fill="#252627"/>
<path d="M47.2462 14.7728L44.1016 17.0458V30.515L53.9966 22.918V18.3415C53.9966 18.3415 52.7956 11.8052 47.2462 14.7728Z" fill="#252627"/>
<path d="M44.1016 30.515V47.9848H51.6856C51.6856 47.9848 53.8438 47.7626 53.999 45.3026V22.918L44.1016 30.515Z" fill="#252627"/>
<path d="M19.8962 48.0012V30.1474L19.8809 30.1348L19.8962 48.0012Z" fill="#252627"/>
<path d="M19.8803 17.0471L16.7529 14.7867C11.2036 11.819 10 18.3529 10 18.3529V22.9292L19.8803 30.1324V17.0471Z" fill="#252627"/>
<path d="M19.8809 17.0488V30.1342L19.8962 30.1468V17.0615L19.8809 17.0488Z" fill="#252627"/>
<path d="M10 22.9336V45.3182C10.1529 47.7808 12.3135 48.0006 12.3135 48.0006H19.8975L19.8803 30.1342L10 22.9336Z" fill="#252627"/>
</svg>
