<svg width="64" height="64" viewBox="0 0 64 64" fill="none" xmlns="http://www.w3.org/2000/svg">
<path d="M49.5423 49.2756H42.2722V37.8881C42.2722 35.1731 42.2232 31.6771 38.49 31.6771C34.7037 31.6771 34.1231 34.6374 34.1231 37.6877V49.2756H26.853V25.8586H33.8328V29.0602H33.9309C35.3538 26.6314 38.0034 25.1758 40.8166 25.278C48.1848 25.278 49.5464 30.1233 49.5464 36.4324L49.5423 49.2715V49.2756ZM18.6507 22.657C17.5339 22.6517 16.4644 22.2059 15.6743 21.4166C14.8842 20.6273 14.4374 19.5582 14.431 18.4414C14.431 16.1271 16.3364 14.2217 18.6507 14.2217C20.965 14.2217 22.8664 16.1271 22.8705 18.4414C22.8705 20.7557 20.965 22.657 18.6507 22.657ZM22.2858 49.2756H15.0075V25.8586H22.2858V49.2756ZM53.1609 7.46686H11.3521C10.4041 7.46135 9.49218 7.83019 8.8146 8.49323C8.13701 9.15627 7.74846 10.0599 7.7334 11.0078V52.9924C7.74846 53.9403 8.13701 54.8439 8.8146 55.507C9.49218 56.17 10.4041 56.5389 11.3521 56.5333H53.165C54.1152 56.541 55.0301 56.1734 55.7107 55.5104C56.3914 54.8473 56.7829 53.9424 56.8001 52.9924V11.0037C56.7829 10.0544 56.3911 9.15036 55.7102 8.48862C55.0293 7.82688 54.1145 7.46108 53.165 7.47095L53.1609 7.46686Z" fill="#252627"/>
</svg>
